<svg title="Aeropresscafe logo" width="176" height="30" fill="none" xmlns="http://www.w3.org/2000/svg">
    <path d="M1.152 24a.325.325 0 0 1-.312-.192c-.064-.128-.064-.296 0-.504L6.816 6.672c.064-.176.136-.296.216-.36.08-.08.216-.12.408-.12h3.6c.352 0 .592.176.72.528l5.928 16.632a.664.664 0 0 1 0 .432c-.048.144-.144.216-.288.216h-3.528c-.24 0-.392-.112-.456-.336l-1.248-3.504a.365.365 0 0 0-.096-.192c-.032-.048-.104-.072-.216-.072H6c-.16 0-.264.08-.312.24l-1.272 3.552a.507.507 0 0 1-.168.24c-.064.048-.176.072-.336.072h-2.76Zm9.72-7.296c.224 0 .296-.136.216-.408L9.072 10.68c-.048-.096-.104-.144-.168-.144-.048 0-.096.056-.144.168l-2.04 5.592c-.112.272-.04.408.216.408h3.936Zm11.36 2.016c0 .592.136 1.12.408 1.584.288.448.664.8 1.128 1.056.48.24 1.016.36 1.608.36.576 0 1.104-.12 1.584-.36.496-.256.992-.672 1.488-1.248.064-.064.12-.096.168-.096.048-.016.136.008.264.072l1.728.72c.224.096.248.256.072.48-.512.736-1.048 1.32-1.608 1.752a5.421 5.421 0 0 1-1.872.936c-.672.176-1.432.264-2.28.264-1.248 0-2.36-.272-3.336-.816a6.178 6.178 0 0 1-2.328-2.256c-.56-.976-.84-2.088-.84-3.336 0-1.376.288-2.568.864-3.576.592-1.024 1.376-1.816 2.352-2.376a6.348 6.348 0 0 1 3.216-.84c1.232 0 2.312.272 3.24.816.928.528 1.656 1.288 2.184 2.28.544.992.816 2.2.816 3.624 0 .176-.016.312-.048.408-.032.096-.152.152-.36.168h-8.16c-.096 0-.168.032-.216.096-.048.064-.072.16-.072.288Zm4.824-2.4c.176 0 .288-.016.336-.048.048-.048.072-.144.072-.288 0-.4-.096-.808-.288-1.224a2.45 2.45 0 0 0-.816-1.032c-.352-.288-.808-.432-1.368-.432-.528 0-1 .128-1.416.384a2.523 2.523 0 0 0-.96 1.08c-.224.448-.336.96-.336 1.536l4.776.024ZM33.558 24c-.176 0-.304-.04-.384-.12-.08-.08-.12-.2-.12-.36V11.736c0-.304.128-.456.384-.456h2.808c.256 0 .384.136.384.408v1.416c0 .096.032.16.096.192.08.016.16-.024.24-.12.32-.432.68-.808 1.08-1.128.416-.32.84-.568 1.272-.744a3.25 3.25 0 0 1 1.224-.264c.576 0 .864.136.864.408v2.784c0 .256-.12.36-.36.312a4.116 4.116 0 0 0-.888-.144 7.702 7.702 0 0 0-.792-.048c-.288 0-.592.056-.912.168a2.931 2.931 0 0 0-.84.48 3.057 3.057 0 0 0-.624.672c-.16.24-.24.496-.24.768v7.008c0 .368-.208.552-.624.552h-2.568Zm15.173.24c-1.264 0-2.384-.28-3.36-.84a6.002 6.002 0 0 1-2.256-2.304c-.544-.992-.816-2.12-.816-3.384 0-1.328.28-2.488.84-3.48a6.031 6.031 0 0 1 2.304-2.352c.976-.56 2.08-.84 3.312-.84 1.296 0 2.424.288 3.384.864a5.753 5.753 0 0 1 2.232 2.352c.544.992.816 2.136.816 3.432 0 1.28-.272 2.416-.816 3.408a5.953 5.953 0 0 1-2.28 2.304c-.96.56-2.08.84-3.36.84Zm.024-2.448c.592 0 1.088-.152 1.488-.456.4-.32.696-.792.888-1.416.208-.624.312-1.384.312-2.28 0-.944-.104-1.72-.312-2.328-.192-.624-.488-1.096-.888-1.416-.4-.32-.896-.48-1.488-.48-.576 0-1.072.16-1.488.48-.4.32-.704.792-.912 1.416-.208.608-.312 1.384-.312 2.328 0 .912.104 1.68.312 2.304.208.608.512 1.072.912 1.392.416.304.912.456 1.488.456ZM72.17 11.736c0 1.184-.28 2.184-.84 3-.56.8-1.328 1.408-2.304 1.824-.96.416-2.08.624-3.36.624h-3.6c-.176 0-.264.088-.264.264v6c0 .368-.208.552-.624.552h-3.072c-.192 0-.328-.04-.408-.12-.064-.08-.096-.2-.096-.36V6.648c0-.304.128-.456.384-.456h7.2c1.28 0 2.448.2 3.504.6 1.072.4 1.92 1.008 2.544 1.824.624.816.936 1.856.936 3.12Zm-4.32-.072c0-.56-.12-1.016-.36-1.368a2.115 2.115 0 0 0-1.032-.816c-.448-.176-.96-.264-1.536-.264h-2.664c-.304 0-.456.136-.456.408v4.104c0 .304.112.456.336.456h2.952c.848 0 1.52-.224 2.016-.672.496-.448.744-1.064.744-1.848ZM74.902 24c-.176 0-.304-.04-.384-.12-.08-.08-.12-.2-.12-.36V11.736c0-.304.128-.456.384-.456h2.808c.256 0 .384.136.384.408v1.416c0 .096.032.16.096.192.08.016.16-.024.24-.12.32-.432.68-.808 1.08-1.128.416-.32.84-.568 1.272-.744a3.25 3.25 0 0 1 1.224-.264c.576 0 .864.136.864.408v2.784c0 .256-.12.36-.36.312a4.116 4.116 0 0 0-.888-.144 7.702 7.702 0 0 0-.792-.048c-.288 0-.592.056-.912.168a2.931 2.931 0 0 0-.84.48 3.057 3.057 0 0 0-.624.672c-.16.24-.24.496-.24.768v7.008c0 .368-.208.552-.624.552h-2.568Zm12.556-5.28c0 .592.136 1.12.408 1.584.288.448.664.8 1.128 1.056.48.24 1.016.36 1.608.36.576 0 1.104-.12 1.584-.36.496-.256.992-.672 1.488-1.248.064-.064.12-.096.168-.096.048-.016.136.008.264.072l1.728.72c.224.096.248.256.072.48-.512.736-1.048 1.32-1.608 1.752a5.421 5.421 0 0 1-1.872.936c-.672.176-1.432.264-2.28.264-1.248 0-2.36-.272-3.336-.816a6.178 6.178 0 0 1-2.328-2.256c-.56-.976-.84-2.088-.84-3.336 0-1.376.288-2.568.864-3.576.592-1.024 1.376-1.816 2.352-2.376a6.348 6.348 0 0 1 3.216-.84c1.232 0 2.312.272 3.24.816.928.528 1.656 1.288 2.184 2.28.544.992.816 2.2.816 3.624 0 .176-.016.312-.048.408-.032.096-.152.152-.36.168h-8.16c-.096 0-.168.032-.216.096-.048.064-.072.16-.072.288Zm4.824-2.4c.176 0 .288-.016.336-.048.048-.048.072-.144.072-.288 0-.4-.096-.808-.288-1.224a2.45 2.45 0 0 0-.816-1.032c-.352-.288-.808-.432-1.368-.432-.528 0-1 .128-1.416.384a2.523 2.523 0 0 0-.96 1.08c-.224.448-.336.96-.336 1.536l4.776.024Zm13.847-1.728c-.272-.352-.64-.656-1.104-.912-.464-.256-1.032-.384-1.704-.384-.592 0-1.096.12-1.512.36-.4.224-.6.536-.6.936 0 .208.08.408.24.6.16.176.528.336 1.104.48l2.76.672c1.328.304 2.272.8 2.832 1.488s.84 1.456.84 2.304c0 .864-.248 1.6-.744 2.208-.48.608-1.152 1.08-2.016 1.416-.864.32-1.856.48-2.976.48-1.424 0-2.632-.248-3.624-.744-.992-.512-1.688-1.144-2.088-1.896a.636.636 0 0 1-.096-.312c0-.112.048-.192.144-.24l1.632-.84c.16-.08.28-.112.36-.096.096 0 .176.04.24.12.208.288.456.56.744.816.288.256.648.464 1.08.624.432.144.976.208 1.632.192.448 0 .848-.048 1.2-.144.368-.112.656-.264.864-.456a.989.989 0 0 0 .312-.72.886.886 0 0 0-.336-.696c-.224-.208-.64-.384-1.248-.528l-2.472-.528c-1.2-.272-2.112-.696-2.736-1.272-.608-.592-.912-1.36-.912-2.304 0-.816.208-1.536.624-2.16.432-.624 1.056-1.112 1.872-1.464.816-.368 1.792-.552 2.928-.552 1.216 0 2.264.224 3.144.672.896.448 1.536.984 1.92 1.608.064.096.112.2.144.312.032.096-.024.184-.168.264l-1.728.84c-.112.048-.216.064-.312.048a.634.634 0 0 1-.24-.192Zm12.727 0c-.272-.352-.64-.656-1.104-.912-.464-.256-1.032-.384-1.704-.384-.592 0-1.096.12-1.512.36-.4.224-.6.536-.6.936 0 .208.08.408.24.6.16.176.528.336 1.104.48l2.76.672c1.328.304 2.272.8 2.832 1.488s.84 1.456.84 2.304c0 .864-.248 1.6-.744 2.208-.48.608-1.152 1.08-2.016 1.416-.864.32-1.856.48-2.976.48-1.424 0-2.632-.248-3.624-.744-.992-.512-1.688-1.144-2.088-1.896a.636.636 0 0 1-.096-.312c0-.112.048-.192.144-.24l1.632-.84c.16-.08.28-.112.36-.096.096 0 .176.04.24.12.208.288.456.56.744.816.288.256.648.464 1.08.624.432.144.976.208 1.632.192.448 0 .848-.048 1.2-.144.368-.112.656-.264.864-.456a.989.989 0 0 0 .312-.72.886.886 0 0 0-.336-.696c-.224-.208-.64-.384-1.248-.528l-2.472-.528c-1.2-.272-2.112-.696-2.736-1.272-.608-.592-.912-1.36-.912-2.304 0-.816.208-1.536.624-2.16.432-.624 1.056-1.112 1.872-1.464.816-.368 1.792-.552 2.928-.552 1.216 0 2.264.224 3.144.672.896.448 1.536.984 1.92 1.608.064.096.112.2.144.312.032.096-.024.184-.168.264l-1.728.84c-.112.048-.216.064-.312.048a.634.634 0 0 1-.24-.192Zm12.726-8.64c.928 0 1.792.136 2.592.408a7.197 7.197 0 0 1 2.184 1.104c.64.48 1.16 1.04 1.56 1.68a5.48 5.48 0 0 1 .816 2.088c.064.256.072.424.024.504-.032.08-.12.128-.264.144l-3.24.216c-.144 0-.24-.024-.288-.072a1.488 1.488 0 0 1-.096-.288c-.176-.832-.52-1.512-1.032-2.04-.512-.544-1.224-.816-2.136-.816-1.2 0-2.144.488-2.832 1.464-.672.96-1.008 2.52-1.008 4.68 0 2.144.32 3.704.96 4.68.656.96 1.632 1.44 2.928 1.44.928 0 1.728-.232 2.4-.696.672-.464 1.224-1.256 1.656-2.376.064-.144.24-.192.528-.144l2.352.504c.08.016.152.064.216.144.064.064.08.216.048.456-.08.336-.24.728-.48 1.176a7.939 7.939 0 0 1-.912 1.392 7.13 7.13 0 0 1-1.44 1.296c-.56.4-1.216.728-1.968.984-.752.24-1.608.36-2.568.36-1.648 0-3.088-.392-4.32-1.176-1.216-.784-2.152-1.872-2.808-3.264-.656-1.392-.984-3.008-.984-4.848 0-1.856.328-3.448.984-4.776.656-1.344 1.592-2.384 2.808-3.12 1.216-.736 2.656-1.104 4.32-1.104Zm16.383 16.824a6.16 6.16 0 0 1-1.68 1.08c-.608.256-1.312.384-2.112.384-1.216 0-2.176-.328-2.88-.984-.688-.656-1.032-1.496-1.032-2.52 0-.896.28-1.68.84-2.352.56-.672 1.36-1.192 2.4-1.56 1.04-.384 2.28-.592 3.72-.624l.84-.072a.504.504 0 0 0 .264-.072c.08-.048.12-.136.12-.264v-.504c0-.608-.176-1.08-.528-1.416-.352-.352-.856-.528-1.512-.528-.48 0-.944.112-1.392.336-.432.208-.8.576-1.104 1.104-.048.112-.104.184-.168.216-.064.032-.184.032-.36 0l-2.4-.552a.43.43 0 0 1-.216-.144c-.032-.08 0-.24.096-.48.4-.944 1.088-1.64 2.064-2.088.992-.464 2.208-.696 3.648-.696 1.328 0 2.384.168 3.168.504.784.336 1.352.808 1.704 1.416.352.592.528 1.288.528 2.088v8.424c0 .192-.032.328-.096.408-.064.08-.184.12-.36.12h-2.472c-.176 0-.304-.064-.384-.192a1.318 1.318 0 0 1-.12-.48l-.048-.528c-.032-.288-.208-.296-.528-.024Zm.48-4.44c0-.272-.12-.408-.36-.408l-.672.048c-.416.016-.832.08-1.248.192-.416.096-.792.24-1.128.432a2.545 2.545 0 0 0-.84.696 1.535 1.535 0 0 0-.312.96c0 .48.168.864.504 1.152.336.272.8.408 1.392.408.4 0 .752-.064 1.056-.192.32-.128.592-.28.816-.456a3.41 3.41 0 0 0 .576-.624c.144-.208.216-.424.216-.648v-1.56Zm13.197-7.056c.16 0 .272.04.336.12.08.08.12.176.12.288v1.776c0 .24-.136.36-.408.36h-1.992c-.16 0-.24.088-.24.264v9.456c0 .304-.128.456-.384.456h-2.952c-.24 0-.36-.136-.36-.408V14.04c0-.144-.064-.216-.192-.216h-1.728c-.288 0-.432-.12-.432-.36v-1.776c0-.112.032-.208.096-.288.08-.08.2-.12.36-.12h1.608c.192 0 .288-.12.288-.36V9.456c0-1.024.304-1.824.912-2.4.608-.576 1.464-.864 2.568-.864h2.424c.352 0 .528.168.528.504l.024 1.56a.447.447 0 0 1-.096.288c-.048.08-.136.12-.264.12h-1.296c-.352 0-.64.136-.864.408-.224.256-.336.592-.336 1.008v.936c0 .176.096.264.288.264h1.992Zm5.035 7.44c0 .592.136 1.12.408 1.584.288.448.664.8 1.128 1.056.48.24 1.016.36 1.608.36.576 0 1.104-.12 1.584-.36.496-.256.992-.672 1.488-1.248.064-.064.12-.096.168-.096.048-.016.136.008.264.072l1.728.72c.224.096.248.256.072.48-.512.736-1.048 1.32-1.608 1.752a5.421 5.421 0 0 1-1.872.936c-.672.176-1.432.264-2.28.264-1.248 0-2.36-.272-3.336-.816a6.178 6.178 0 0 1-2.328-2.256c-.56-.976-.84-2.088-.84-3.336 0-1.376.288-2.568.864-3.576.592-1.024 1.376-1.816 2.352-2.376a6.348 6.348 0 0 1 3.216-.84c1.232 0 2.312.272 3.24.816.928.528 1.656 1.288 2.184 2.28.544.992.816 2.2.816 3.624 0 .176-.016.312-.048.408-.032.096-.152.152-.36.168h-8.16c-.096 0-.168.032-.216.096-.048.064-.072.16-.072.288Zm4.824-2.4c.176 0 .288-.016.336-.048.048-.048.072-.144.072-.288 0-.4-.096-.808-.288-1.224a2.45 2.45 0 0 0-.816-1.032c-.352-.288-.808-.432-1.368-.432-.528 0-1 .128-1.416.384a2.523 2.523 0 0 0-.96 1.08c-.224.448-.336.96-.336 1.536l4.776.024Zm1.224-8.544c.112.32-.008.528-.36.624l-5.544 1.488c-.176.032-.304.032-.384 0a.496.496 0 0 1-.192-.264l-.288-.84c-.08-.24-.032-.4.144-.48L171.789 6c.192-.08.328-.008.408.216l.528 1.56Z" fill="#DD370E"/>
</svg>